<?xml version="1.0" ?><svg viewBox="0 0 512 512" xmlns="http://www.w3.org/2000/svg"><defs><style>.cls-1{fill:#a7aec1;}.cls-2{fill:#9fdef4;}.cls-3{fill:#c7eef9;}.cls-4{opacity:0.2;}.cls-5{fill:#3f456b;}.cls-6{opacity:0.5;}</style></defs><title/><g id="Colors"><rect class="cls-1" height="479" rx="45.71" ry="45.71" width="481" x="16" y="16"/><circle class="cls-2" cx="256.45" cy="192.99" r="30.33"/><path class="cls-3" d="M229.74,197.84s3.37-22.66,27.25-22.66,26.71,24.55,26.71,24.55,4.1-36.78-24.23-36.92C226.09,162.64,229.74,197.84,229.74,197.84Z"/><g class="cls-4"><path class="cls-5" d="M283.91,188.66s-3.37,22.67-27.25,22.67S230,186.77,230,186.77s-4.1,36.79,24.22,36.93C287.55,223.87,283.91,188.66,283.91,188.66Z"/></g><g class="cls-6"><path class="cls-5" d="M257,152a5,5,0,0,1-5-5v-1a5,5,0,0,1,10,0v1A5,5,0,0,1,257,152Zm0-21a5,5,0,0,1-5-5v-1a5,5,0,0,1,10,0v1A5,5,0,0,1,257,131Zm0-21a5,5,0,0,1-5-5v-1a5,5,0,0,1,10,0v1A5,5,0,0,1,257,110Zm0-21a5,5,0,0,1-5-5V83a5,5,0,0,1,10,0v1A5,5,0,0,1,257,89Zm0-21a5,5,0,0,1-5-5V62a5,5,0,0,1,10,0v1A5,5,0,0,1,257,68Zm0-21a5,5,0,0,1-5-5V41a5,5,0,0,1,10,0v1A5,5,0,0,1,257,47Zm0-21a5,5,0,0,1-5-5V20a5,5,0,0,1,10,0v1A5,5,0,0,1,257,26Z"/></g><g class="cls-6"><path class="cls-5" d="M257,308a5,5,0,0,1-5-5v-1a5,5,0,0,1,10,0v1A5,5,0,0,1,257,308Zm0-21a5,5,0,0,1-5-5v-1a5,5,0,0,1,10,0v1A5,5,0,0,1,257,287Zm0-21a5,5,0,0,1-5-5v-1a5,5,0,0,1,10,0v1A5,5,0,0,1,257,266Zm0-21a5,5,0,0,1-5-5v-1a5,5,0,0,1,10,0v1A5,5,0,0,1,257,245Z"/></g><polyline class="cls-2" points="369 495 369 218 401 218 401 495"/><polyline class="cls-2" points="433 495 433 272 465 272 465 495"/><polyline class="cls-2" points="304 495 304 255 336 255 336 495"/><polyline class="cls-2" points="240 495 240 319 272 319 272 495"/><polyline class="cls-2" points="176 495 176 367 208 367 208 495"/><polyline class="cls-2" points="112 495 112 431 144 431 144 495"/><polyline class="cls-2" points="48 495 48 415 80 415 80 495"/><g class="cls-6"><path class="cls-5" d="M65,67H48a5,5,0,0,1,0-10H65a5,5,0,0,1,0,10Z"/><path class="cls-5" d="M65,163.5H48a5,5,0,0,1,0-10H65a5,5,0,0,1,0,10Z"/><path class="cls-5" d="M65,116.5H48a5,5,0,0,1,0-10H65a5,5,0,0,1,0,10Z"/><path class="cls-5" d="M65,212.5H48a5,5,0,0,1,0-10H65a5,5,0,0,1,0,10Z"/><path class="cls-5" d="M65,259.5H48a5,5,0,0,1,0-10H65a5,5,0,0,1,0,10Z"/></g></g><g id="Lines"><path class="cls-5" d="M450.37,500H61.82a49.89,49.89,0,0,1-36-15.41A51.87,51.87,0,0,1,11,448.27V61.71A50.83,50.83,0,0,1,61.82,11H450.37A50.73,50.73,0,0,1,501,61.71V448.27a52,52,0,0,1-14.75,36.31A49.64,49.64,0,0,1,450.37,500ZM61.82,21A40.81,40.81,0,0,0,21,61.71V448.27C21,470.89,39.69,490,61.82,490H450.37c22,0,40.63-19.11,40.63-41.73V61.71A40.71,40.71,0,0,0,450.37,21Z"/><path class="cls-5" d="M332.67,233.5a4.94,4.94,0,0,1-2.1-.46l-48.67-22.5a5,5,0,0,1,4.2-9.08l44,20.33,42.85-102a5,5,0,0,1,7.51-2.14l50.57,36,60.82-93.3a5,5,0,0,1,8.38,5.46L436.52,163.4a5,5,0,0,1-7.08,1.34l-49.73-35.37L337.28,230.44a5,5,0,0,1-2.8,2.72A5,5,0,0,1,332.67,233.5Z"/><path class="cls-5" d="M16,420a4.9,4.9,0,0,1-2.25-.54,5,5,0,0,1-2.21-6.71l48-95a5,5,0,0,1,6.7-2.22l59,29.5,23.07-62.76A5,5,0,0,1,153,279h35.45L235,215.06a5,5,0,1,1,8.08,5.88l-48,66a5,5,0,0,1-4,2.06H156.49l-23.8,64.73a5,5,0,0,1-6.93,2.74L66.22,326.7,20.46,417.25A5,5,0,0,1,16,420Z"/><path class="cls-5" d="M256.45,228.3a35.32,35.32,0,1,1,25-10.33h0A35.22,35.22,0,0,1,256.45,228.3Zm0-60.63a25.32,25.32,0,1,0,17.92,7.4A25.25,25.25,0,0,0,256.44,167.67Z"/><path class="cls-5" d="M406,495H396V223H374V495H364V218a5,5,0,0,1,5-5h32a5,5,0,0,1,5,5Z"/><path class="cls-5" d="M470,495H460V277H438V495H428V272a5,5,0,0,1,5-5h32a5,5,0,0,1,5,5Z"/><path class="cls-5" d="M341,495H331V260H309V495H299V255a5,5,0,0,1,5-5h32a5,5,0,0,1,5,5Z"/><path class="cls-5" d="M277,495H267V324H245V495H235V319a5,5,0,0,1,5-5h32a5,5,0,0,1,5,5Z"/><path class="cls-5" d="M213,495H203V372H181V495H171V367a5,5,0,0,1,5-5h32a5,5,0,0,1,5,5Z"/><path class="cls-5" d="M149,495H139V436H117v59H107V431a5,5,0,0,1,5-5h32a5,5,0,0,1,5,5Z"/><path class="cls-5" d="M85,495H75V420H53v75H43V415a5,5,0,0,1,5-5H80a5,5,0,0,1,5,5Z"/><path class="cls-5" d="M256.5,198.5a5,5,0,0,1-5-5v-1a5,5,0,0,1,10,0v1A5,5,0,0,1,256.5,198.5Z"/></g></svg>